<?xml version="1.0" standalone="no"?>
<!DOCTYPE svg PUBLIC "-//W3C//DTD SVG 20010904//EN"
 "http://www.w3.org/TR/2001/REC-SVG-20010904/DTD/svg10.dtd">
<svg version="1.0" xmlns="http://www.w3.org/2000/svg"
 width="600.000000pt" height="400.000000pt" viewBox="0 0 600.000000 400.000000"
 preserveAspectRatio="xMidYMid meet">
<g transform="translate(0.000000,400.000000) scale(0.100000,-0.100000)"
fill="#000000" stroke="none">
<path d="M1620 2027 l0 -627 60 0 60 0 0 482 0 483 203 -203 202 -202 203 202
202 203 0 -483 0 -482 560 0 560 0 0 222 0 223 90 -90 90 -90 88 88 c48 48 91
87 95 87 4 0 7 -99 7 -220 l0 -220 55 0 55 0 0 362 0 363 -148 -147 -147 -147
-150 145 -150 144 -3 -300 -2 -300 -440 0 -440 0 0 560 c0 308 -3 560 -7 560
-5 0 -122 -115 -262 -256 l-255 -255 -263 263 -263 263 0 -628z"/>
<path d="M2798 2643 c-17 -4 -18 -37 -18 -514 l0 -509 220 0 220 0 0 55 0 55
-160 0 -160 0 -2 458 -3 457 -40 2 c-22 0 -48 -1 -57 -4z"/>
<path d="M3330 2132 l0 -512 60 0 60 0 0 372 0 373 203 -203 202 -202 200 200
c109 110 200 200 202 200 2 0 3 -216 3 -480 l0 -481 58 3 57 3 3 618 c1 339
-1 617 -5 617 -4 0 -124 -116 -265 -257 l-258 -258 -260 260 -260 260 0 -513z"/>
<path d="M1842 1763 l3 -358 58 -3 57 -3 0 223 0 223 88 -88 c48 -48 92 -87
97 -87 5 0 49 39 97 87 l88 88 0 -223 0 -223 58 3 57 3 3 358 c1 196 -1 357
-6 357 -4 0 -72 -65 -152 -145 l-145 -145 -145 145 c-80 80 -149 145 -153 145
-4 0 -6 -161 -5 -357z"/>
</g>
</svg>
